<svg width="152" height="36" viewBox="0 0 152 36" fill="none" xmlns="http://www.w3.org/2000/svg">
<path d="M12.915 1.58243C12.915 1.03621 13.3598 0.593414 13.9085 0.593414H15.2994C15.848 0.593414 16.2928 1.03621 16.2928 1.58243V17.011C16.2928 17.5572 15.848 18 15.2994 18H13.9085C13.3598 18 12.915 17.5572 12.915 17.011V1.58243Z" fill="#8B0602"/>
<path d="M12.915 1.4499C13.1894 0.976864 13.797 0.814791 14.2721 1.0879L15.4766 1.78021C15.9518 2.05331 16.1146 2.65819 15.8403 3.13121L9.58145 13.9232C9.30711 14.3963 8.69953 14.5583 8.22435 14.2852L7.01984 13.5929C6.54469 13.3198 6.38188 12.7149 6.65621 12.2419L12.915 1.4499Z" fill="#8B0602"/>
<path d="M3.42197 1.58243C3.42197 1.03621 2.97717 0.593414 2.4285 0.593414H1.03765C0.488979 0.593414 0.0441895 1.03621 0.0441895 1.58243V17.011C0.0441895 17.5572 0.488979 18 1.03765 18H2.4285C2.97717 18 3.42197 17.5572 3.42197 17.011V1.58243Z" fill="#8B0602"/>
<path d="M3.42197 1.4499C3.14763 0.976864 2.54003 0.814791 2.06488 1.0879L0.860363 1.78021C0.385195 2.05331 0.222392 2.65819 0.496729 3.13121L6.75556 13.9232C7.02989 14.3963 7.63747 14.5583 8.11265 14.2852L9.31716 13.5929C9.79232 13.3198 9.95513 12.7149 9.68079 12.2419L3.42197 1.4499Z" fill="#8B0602"/>
<path d="M65.1713 1.78021C65.1713 1.23399 65.6161 0.791199 66.1647 0.791199H68.7477C69.2963 0.791199 69.7412 1.23399 69.7412 1.78021V31.0549C69.7412 31.6011 69.2963 32.0439 68.7477 32.0439H66.1647C65.6161 32.0439 65.1713 31.6011 65.1713 31.0549V1.78021Z" fill="#8B0602"/>
<path d="M46.2857 1.68535C46.2857 1.38574 45.8407 1.14285 45.2919 1.14285H42.7081C42.1591 1.14285 41.7143 1.38574 41.7143 1.68535V17.7432C41.7143 18.0428 42.1591 18.2857 42.7081 18.2857H45.2919C45.8407 18.2857 46.2857 18.0428 46.2857 17.7432V1.68535Z" fill="#8B0602"/>
<path d="M46.335 1.63416C46.0634 1.16434 45.462 1.00337 44.9915 1.27462L42.7775 2.55161C42.3073 2.82286 42.146 3.42363 42.4176 3.89345L53.0937 22.3657C53.3653 22.8357 53.9667 22.9966 54.4369 22.7255L56.6511 21.4485C57.1214 21.1772 57.2824 20.5764 57.011 20.1065L46.335 1.63416Z" fill="#8B0602"/>
<path d="M65.3274 1.25212C65.6018 0.77908 66.2094 0.617006 66.6845 0.890114L68.9216 2.17583C69.3966 2.44893 69.5594 3.05381 69.2852 3.52684L58.4989 22.1254C58.2245 22.5985 57.6169 22.7605 57.1419 22.4875L54.9048 21.2018C54.4297 20.9287 54.2668 20.3238 54.5412 19.8506L65.3274 1.25212Z" fill="#8B0602"/>
<path d="M15.2994 14.6374H13.9085C13.3598 14.6374 12.915 15.0802 12.915 15.6264V17.011C12.915 17.5572 13.3598 18 13.9085 18H15.2994C15.848 18 16.2928 17.5572 16.2928 17.011V15.6264C16.2928 15.0802 15.848 14.6374 15.2994 14.6374Z" fill="black"/>
<path d="M9.73597 13.055C9.73597 12.181 9.02431 11.4725 8.14643 11.4725C7.26855 11.4725 6.55688 12.181 6.55688 13.055C6.55688 13.9289 7.26855 14.6374 8.14643 14.6374C9.02431 14.6374 9.73597 13.9289 9.73597 13.055Z" fill="#8B0602"/>
<path d="M15.2994 23.4725H13.9085C13.3598 23.4725 12.915 23.9153 12.915 24.4615V29.6044C12.915 30.1506 13.3598 30.5934 13.9085 30.5934H15.2994C15.848 30.5934 16.2928 30.1506 16.2928 29.6044V24.4615C16.2928 23.9153 15.848 23.4725 15.2994 23.4725Z" fill="black"/>
<path d="M13.7098 29.4066C13.3252 29.4066 13.1328 29.4066 13.0137 29.5484C12.8946 29.69 12.9248 29.858 12.9852 30.1936C13.0346 30.468 13.1098 30.7368 13.21 30.9961C13.4047 31.5001 13.6901 31.958 14.0499 32.3438C14.4096 32.7295 14.8368 33.0355 15.3068 33.2441C15.7769 33.453 16.2807 33.5604 16.7895 33.5604C17.2984 33.5604 17.8022 33.453 18.2723 33.2441C18.7423 33.0355 19.1694 32.7295 19.5292 32.3438C19.889 31.958 20.1745 31.5001 20.3692 30.9961C20.4693 30.7368 20.5444 30.468 20.5939 30.1936C20.6543 29.858 20.6845 29.69 20.5653 29.5484C20.4463 29.4066 20.254 29.4066 19.8693 29.4066H17.7338C17.5792 29.4066 17.4588 29.5356 17.4033 29.6792C17.3699 29.7656 17.321 29.8441 17.2593 29.9102C17.1976 29.9763 17.1244 30.0289 17.0438 30.0647C16.9632 30.1003 16.8768 30.1189 16.7895 30.1189C16.7023 30.1189 16.6159 30.1003 16.5353 30.0647C16.4547 30.0289 16.3815 29.9763 16.3198 29.9102C16.2581 29.8441 16.2092 29.7656 16.1758 29.6792C16.1203 29.5356 15.9999 29.4066 15.8453 29.4066H13.7098Z" fill="black"/>
<path d="M34.0162 26.0659V31.644C32.5061 32.811 30.4 33.4044 28.4329 33.4044C24.0617 33.4044 20.8627 30.4176 20.8627 26.2637C20.8627 22.1099 24.0617 19.1231 28.4925 19.1231C30.9166 19.1231 32.9234 19.9341 34.2546 21.4769L32.2876 23.2967C31.2544 22.2286 30.0622 21.7143 28.6316 21.7143C25.8698 21.7143 23.9623 23.5736 23.9623 26.2637C23.9623 28.9143 25.8698 30.8132 28.5919 30.8132C29.5059 30.8132 30.3602 30.6352 31.1948 30.1802V26.0659H34.0162Z" fill="black"/>
<path d="M34.0162 24.9231H34.2149V24.7253H34.0162V24.9231ZM34.0162 30.5011L34.138 30.6574L34.2149 30.598V30.5011H34.0162ZM34.2546 20.3341L34.39 20.479L34.5298 20.3495L34.4055 20.2051L34.2546 20.3341ZM32.2876 22.1538L32.1445 22.2911L32.2798 22.431L32.4229 22.2988L32.2876 22.1538ZM31.1948 29.0374L31.2902 29.2108L31.3935 29.1547V29.0374H31.1948ZM31.1948 24.9231V24.7253H30.9961V24.9231H31.1948ZM33.8175 24.9231V30.5011H34.2149V24.9231H33.8175ZM33.8944 30.3448C32.4259 31.4798 30.3652 32.0637 28.433 32.0637V32.4593C30.4348 32.4593 32.5864 31.8564 34.138 30.6574L33.8944 30.3448ZM28.433 32.0637C24.1607 32.0637 21.0614 29.155 21.0614 25.1209H20.6641C20.6641 29.3944 23.9628 32.4593 28.433 32.4593V32.0637ZM21.0614 25.1209C21.0614 21.0877 24.1597 18.178 28.4926 18.178V17.7824C23.9638 17.7824 20.6641 20.8464 20.6641 25.1209H21.0614ZM28.4926 18.178C30.8715 18.178 32.8181 18.9727 34.1038 20.463L34.4055 20.2051C33.0287 18.6097 30.9617 17.7824 28.4926 17.7824V18.178ZM34.1193 20.1891L32.1523 22.0088L32.4229 22.2988L34.39 20.479L34.1193 20.1891ZM32.4307 22.0166C31.3617 20.9114 30.1185 20.3736 28.6316 20.3736V20.7692C30.006 20.7692 31.1471 21.26 32.1445 22.2911L32.4307 22.0166ZM28.6316 20.3736C27.205 20.3736 25.9859 20.8545 25.1223 21.6959C24.2584 22.5378 23.7637 23.7278 23.7637 25.1209H24.1611C24.1611 23.8239 24.62 22.7391 25.4003 21.9788C26.181 21.218 27.2964 20.7692 28.6316 20.7692V20.3736ZM23.7637 25.1209C23.7637 26.4948 24.2588 27.684 25.1166 28.53C25.9741 29.376 27.1832 29.8681 28.5919 29.8681V29.4725C27.2785 29.4725 26.1728 29.0152 25.3961 28.2491C24.6196 27.483 24.1611 26.3975 24.1611 25.1209H23.7637ZM28.5919 29.8681C29.5339 29.8681 30.4221 29.6842 31.2902 29.2108L31.0994 28.8639C30.2985 29.3004 29.4779 29.4725 28.5919 29.4725V29.8681ZM31.3935 29.0374V24.9231H30.9961V29.0374H31.3935ZM31.1948 25.1209H34.0162V24.7253H31.1948V25.1209Z" fill="black"/>
<path d="M35.6852 27.3517V24.9583H46.0967V27.3517H35.6852ZM35.6852 21.8132V19.3407H46.0967V21.8132H35.6852ZM35.6852 30.7143V33.1868H46.0967V30.7143H35.6852Z" fill="black"/>
<path d="M35.6852 26.2088H35.4865V26.4066H35.6852V26.2088ZM35.6852 23.8154V23.6176H35.4865V23.8154H35.6852ZM46.0967 23.8154H46.2954V23.6176H46.0967V23.8154ZM46.0967 26.2088V26.4066H46.2954V26.2088H46.0967ZM35.6852 20.6703H35.4865V20.8681H35.6852V20.6703ZM35.6852 18.1978V18H35.4865V18.1978H35.6852ZM46.0967 18.1978H46.2954V18H46.0967V18.1978ZM46.0967 20.6703V20.8681H46.2954V20.6703H46.0967ZM35.6852 29.5714V29.3736H35.4865V29.5714H35.6852ZM35.6852 32.044H35.4865V32.2418H35.6852V32.044ZM46.0967 32.044V32.2418H46.2954V32.044H46.0967ZM46.0967 29.5714H46.2954V29.3736H46.0967V29.5714ZM35.8839 26.2088V23.8154H35.4865V26.2088H35.8839ZM35.6852 24.0132H46.0967V23.6176H35.6852V24.0132ZM45.898 23.8154V26.2088H46.2954V23.8154H45.898ZM46.0967 26.011H35.6852V26.4066H46.0967V26.011ZM35.8839 20.6703V18.1978H35.4865V20.6703H35.8839ZM35.6852 18.3956H46.0967V18H35.6852V18.3956ZM45.898 18.1978V20.6703H46.2954V18.1978H45.898ZM46.0967 20.4725H35.6852V20.8681H46.0967V20.4725ZM35.4865 29.5714V32.044H35.8839V29.5714H35.4865ZM35.6852 32.2418H46.0967V31.8462H35.6852V32.2418ZM46.2954 32.044V29.5714H45.898V32.044H46.2954ZM46.0967 29.3736H35.6852V29.7692H46.0967V29.3736Z" fill="black"/>
<path d="M24.5823 17.7705C20.4574 17.7705 17.5009 15.0646 17.5009 11.2193C17.5009 7.3978 20.4574 4.69186 24.5823 4.69186C27.2289 4.69186 29.3032 5.80747 30.2331 7.84879L27.515 9.34417C26.7997 8.13362 25.7506 7.58769 24.5584 7.58769C22.5794 7.58769 21.0773 8.96439 21.0773 11.2193C21.0773 13.5218 22.5794 14.8747 24.5584 14.8747C25.7506 14.8747 26.7997 14.3288 27.515 13.1182L30.2331 14.6136C29.3032 16.6312 27.2289 17.7705 24.5823 17.7705Z" fill="#8B0602"/>
<path d="M79.795 4.62065L74.3111 17.6044H70.5439L77.9829 0.989002H81.6309L89.0938 17.6044H85.2551L79.795 4.62065ZM96.3592 17.8655C93.7127 17.8655 91.0661 17.0822 89.6116 15.9429L90.8515 13.1657C92.2344 14.1864 94.3564 14.9222 96.3592 14.9222C98.7197 14.9222 99.6973 14.1152 99.6973 13.047C99.6973 9.81889 89.9454 12.0026 89.9454 5.8312C89.9454 3.05406 92.1867 0.727905 96.9076 0.727905C98.982 0.727905 101.104 1.22636 102.654 2.17582L101.486 4.9767C99.9596 4.09845 98.3382 3.6712 96.8838 3.6712C94.5233 3.6712 93.5934 4.57318 93.5934 5.66505C93.5934 8.84571 103.345 6.66197 103.345 12.7859C103.345 15.5393 101.056 17.8655 96.3592 17.8655ZM112.977 17.6044H109.305V4.00351H103.917V0.989002H118.366V4.00351H112.977V17.6044ZM120.518 10.6022V7.7301H133.012V10.6022H120.518ZM120.518 3.95604V0.989002H133.012V3.95604H120.518ZM120.518 14.6374V17.6044H133.012V14.6374H120.518ZM147.411 12.24L151.178 17.6044H147.196L143.929 12.9283C143.834 12.9283 143.739 12.9283 143.643 12.9283H140.186V17.6044H136.514V9.98505H143.453C145.885 9.98505 147.148 8.86944 147.148 6.99428C147.148 5.09538 145.885 4.00351 143.453 4.00351H136.514V0.989002H143.643C148.102 0.989002 150.868 3.26769 150.868 6.99428C150.868 9.48659 149.604 11.3143 147.411 12.24Z" fill="#8B0602"/>
<path d="M52.8523 20.7692H58.4157V21.8571C58.4157 22.4581 57.9265 22.9451 57.3229 22.9451H53.9451C53.3415 22.9451 52.8523 22.4581 52.8523 21.8571V20.7692Z" fill="#8B0602"/>
<path d="M50.6865 24.8396V33.1868H47.8055V19.3407H50.3289L55.6141 28.0835L60.8 19.3407H63.3433L63.3631 33.1868H60.4821L60.4622 24.7011L56.2499 31.6835H54.8789L50.6865 24.8396Z" fill="black"/>
<path d="M50.6866 23.6967L50.8562 23.5936L50.4879 22.9925V23.6967H50.6866ZM50.6866 32.044V32.2418H50.8852V32.044H50.6866ZM47.8055 32.044H47.6068V32.2418H47.8055V32.044ZM47.8055 18.1978V18H47.6068V18.1978H47.8055ZM50.3289 18.1978L50.4992 18.0958L50.4412 18H50.3289V18.1978ZM55.6141 26.9407L55.4439 27.0427L55.6157 27.327L55.7852 27.0411L55.6141 26.9407ZM60.8 18.1978V18H60.6866L60.6289 18.0972L60.8 18.1978ZM63.3433 18.1978L63.542 18.1975L63.5418 18H63.3433V18.1978ZM63.3631 32.044V32.2418H63.562L63.5618 32.0438L63.3631 32.044ZM60.4821 32.044L60.2834 32.0444L60.2838 32.2418H60.4821V32.044ZM60.4622 23.5582L60.6609 23.5578L60.6593 22.8475L60.292 23.4564L60.4622 23.5582ZM56.2499 30.5407V30.7385H56.3624L56.4202 30.6425L56.2499 30.5407ZM54.879 30.5407L54.7093 30.6437L54.7675 30.7385H54.879V30.5407ZM50.4879 23.6967V32.044H50.8852V23.6967H50.4879ZM50.6866 31.8462H47.8055V32.2418H50.6866V31.8462ZM48.0042 32.044V18.1978H47.6068V32.044H48.0042ZM47.8055 18.3956H50.3289V18H47.8055V18.3956ZM50.1586 18.2998L55.4439 27.0427L55.7844 26.8386L50.4992 18.0958L50.1586 18.2998ZM55.7852 27.0411L60.9711 18.2984L60.6289 18.0972L55.4431 26.8402L55.7852 27.0411ZM60.8 18.3956H63.3433V18H60.8V18.3956ZM63.1446 18.1981L63.1645 32.0442L63.5618 32.0438L63.542 18.1975L63.1446 18.1981ZM63.3631 31.8462H60.4821V32.2418H63.3631V31.8462ZM60.6808 32.0436L60.6609 23.5578L60.2635 23.5586L60.2834 32.0444L60.6808 32.0436ZM60.292 23.4564L56.0797 30.4388L56.4202 30.6425L60.6325 23.6601L60.292 23.4564ZM56.2499 30.3429H54.879V30.7385H56.2499V30.3429ZM55.0486 30.4376L50.8562 23.5936L50.5169 23.7998L54.7093 30.6437L55.0486 30.4376Z" fill="black"/>
</svg>
